<svg xmlns="http://www.w3.org/2000/svg" viewBox="0 0 1080.45 505.98"><defs><style>.cls-1,.cls-19{fill:#fff;}.cls-2{fill:#e2e2e2;}.cls-3{fill:#650000;}.cls-4{fill:#ffc933;}.cls-5{fill:#ff8f33;}.cls-6{opacity:0.3;}.cls-7{fill:#432c7a;}.cls-8{fill:#39cef7;}.cls-9{opacity:0.7;}.cls-10{opacity:0.5;}.cls-11{fill:#fff3e9;}.cls-12{fill:#f9d3b7;}.cls-13{fill:#ff4848;}.cls-14{fill:#60331d;}.cls-15{fill:#592c1a;}.cls-16{opacity:0.35;}.cls-17{opacity:0.2;}.cls-18{fill:#ff0068;}.cls-19{font-size:140.3px;font-family:Poppins-SemiBold, Poppins;font-weight:600;}</style></defs><g id="Layer_2" data-name="Layer 2"><g id="Layer_1-2" data-name="Layer 1"><path class="cls-1" d="M110.85,395.88,130,364.43a53,53,0,0,1-17.33-.26c-11.83-2.14-19.37-7.54-22.5-6.9a1.1,1.1,0,0,0-.26.06c-3.4,1.18,4.67,31.47,21,38.55"/><path class="cls-2" d="M110.85,395.88,130,364.43a53,53,0,0,1-17.33-.26c-1.71,2.92-5.35,7.47-11.46,7.8-5,.27-8.74-7.63-11-14.7a1.1,1.1,0,0,0-.26.06c-3.4,1.18,4.67,31.47,21,38.55"/><path class="cls-3" d="M110.84,399.24a3.31,3.31,0,0,1-1.33-.28c-15.22-6.6-24.1-31.16-23.77-39.76.13-3.35,1.71-4.59,3-5,2.59-.9,5.4.26,9.66,2,6.77,2.79,17,7,31,4.93a3.35,3.35,0,0,1,3.36,5.06l-19.1,31.45A3.37,3.37,0,0,1,110.84,399.24ZM92.51,361.06c.78,6.37,6.59,23.69,17.11,30.37l14-23.08c-12.44.37-21.82-3.51-27.78-6C94.77,361.93,93.53,361.42,92.51,361.06Z"/><path class="cls-4" d="M138.7,435.69c-9.08,23.06-44.24,19.67-47.53,38.16-1.29,7.26,1.9,12.77,5,16.38-.22,9.79,9.14,15.36,20.22,10.22,38.43,6.43,84.37-2.35,102.77-13Z"/><path class="cls-4" d="M96.19,490.23c-.23,9.8,9.15,15.36,20.22,10.22,19.25,3.22,40.4,2.63,59-.11s34.58-7.59,43.76-12.92L138.7,435.69c-4.63,11.76-16,16.65-26.56,21.06-10.1,4.24-19.36,8.05-21,17.11-1.29,7.24,1.9,12.76,5,16.37"/><path class="cls-5" d="M112.14,456.75c8.65,19.39,30,39.89,63.28,43.59,18.54-2.73,34.58-7.59,43.76-12.92L138.7,435.69c-4.63,11.76-16,16.65-26.56,21.06"/><path class="cls-3" d="M144.38,506a176.36,176.36,0,0,1-27.53-2.05c-6.39,2.67-12.72,2.43-17.49-.69a14.63,14.63,0,0,1-6.51-11.78c-4.4-5.54-6.12-11.8-5-18.19,1.92-10.78,12.48-15.21,22.69-19.5s20.87-8.76,25-19.31a3.34,3.34,0,0,1,4.93-1.59L221,484.59a3.36,3.36,0,0,1-.13,5.73C205.67,499.15,174.93,506,144.38,506Zm-28-8.88a3.52,3.52,0,0,1,.56,0c33.11,5.54,74.53-.63,95.48-10.06l-72.36-46.5c-5.89,10.55-17,15.22-26.94,19.38-9.34,3.92-17.4,7.31-18.68,14.48-.85,4.77.58,9.35,4.26,13.59a3.37,3.37,0,0,1,.81,2.27,8.12,8.12,0,0,0,3.5,7.32c3,2,7.39,1.91,12-.21A3.29,3.29,0,0,1,116.41,497.1Z"/><path class="cls-4" d="M107.61,376.67c-11.85,22.72-31.82,12.84-48.88,15.7-5.77,1-11.81,7-14.17,12.32-1.61,3.64-2.75,10.37,2.92,13.64-3.33,7.37-1.11,17.29,14.37,17,13.34,8,30.42,14.31,61.48,16.82Z"/><path class="cls-4" d="M47.48,418.32c-3.32,7.38-1.11,17.31,14.37,17a100,100,0,0,0,10.08,5.29c12,5.45,27.58,9.6,51.4,11.53l-15.72-75.45c-2.85,5.48-6.18,9.06-9.83,11.38-11.48,7.31-26.11,2.15-39.05,4.32-5.77,1-11.81,7-14.17,12.32-1.61,3.64-2.75,10.36,2.92,13.63"/><path class="cls-5" d="M71.93,440.59c12,5.45,27.58,9.6,51.4,11.53l-15.72-75.45c-2.85,5.48-6.18,9.06-9.83,11.38a115.9,115.9,0,0,0,2.53,46.11c4.22,16.39-20.76,9-28.38,6.43"/><path class="cls-3" d="M123.33,455.48h-.27c-27.18-2.2-45.83-7.24-62.12-16.81-9.45,0-13.9-3.72-16-6.86a14.72,14.72,0,0,1-1.49-12.29c-4.44-4.21-4.34-10.87-2-16.18,2.66-6,9.42-13.05,16.68-14.27,5.15-.86,10.43-.65,15.54-.44,12.55.5,23.39.94,30.93-13.5a3.35,3.35,0,0,1,6.26.87l15.72,75.45a3.36,3.36,0,0,1-3.29,4ZM61.85,431.94a3.32,3.32,0,0,1,1.73.48c10.45,6.27,25.23,13,55.54,16L106,385.24c-9.27,11-21.53,10.53-32.53,10.09-5-.21-9.7-.4-14.15.35s-9.71,6-11.66,10.37c-.31.7-2.87,6.83,1.53,9.37a3.36,3.36,0,0,1,1.38,4.29c-1.4,3.1-1.39,6.24,0,8.39,1.74,2.63,5.61,4,11.21,3.84Z"/><g class="cls-6"><path class="cls-1" d="M218.13,379.48c23.52-84.42-19.06-219.67-79.13-218.16-33.15.84-59.69,68.51-47.06,124.11,9,39.54,33.39,71.95,59,94.66"/></g><path class="cls-7" d="M150.91,383.45a3.39,3.39,0,0,1-2.23-.84c-21.77-19.34-49.86-51.77-60-96.44-8.55-37.62.1-84,20.56-110.31,8.9-11.44,19.17-17.63,29.68-17.89,16.78-.42,33.22,9.09,47.58,27.52,35.61,45.67,51.58,134.92,34.88,194.89a3.36,3.36,0,0,1-6.47-1.8c16.21-58.2.78-144.74-33.7-189-13-16.67-27.56-25.29-42.12-24.93-8.44.21-16.93,5.5-24.55,15.3-19,24.45-27.32,69.46-19.31,104.7,7.61,33.5,28.18,66.49,57.92,92.9a3.36,3.36,0,0,1-2.23,5.87Z"/><path class="cls-8" d="M147.27,181.05a214.18,214.18,0,0,1,11,22.65q4.91,11.63,8.86,23.6a318.91,318.91,0,0,1,12,48.85,324,324,0,0,1,4.32,50l-.06,6.27,0,3.14-.12,3.13L183,345c-.12,2.08-.3,4.17-.45,6.25-.24,4.17-.73,8.32-1.16,12.48-.18,2.08-.51,4.14-.79,6.21l-.86,6.21v.11a3.36,3.36,0,1,0,6.65.92v0l.79-6.36c.26-2.12.56-4.23.72-6.36.37-4.25.83-8.49,1-12.76.1-2.13.24-4.25.31-6.38l.14-6.4.05-3.2,0-3.19-.08-6.4a317.35,317.35,0,0,0-5.53-50.73,324.83,324.83,0,0,0-13.52-49.09c-5.82-16-12.67-31.52-21.54-46.06a.82.82,0,0,0-1.41.84Z"/><path class="cls-8" d="M118,225a106.58,106.58,0,0,1,10.58,5.8q5.15,3.18,10,6.75a155.72,155.72,0,0,1,18.31,15.67A112,112,0,0,1,172,271.72a73,73,0,0,1,9.59,21.46h0a2.48,2.48,0,0,0,4.81-1.2l0-.08a77.4,77.4,0,0,0-10.93-22.48,116,116,0,0,0-16.24-18.62A156,156,0,0,0,140,235.48c-3.38-2.3-6.85-4.48-10.4-6.5a110.27,110.27,0,0,0-11-5.54.82.82,0,0,0-.68,1.5Z"/><path class="cls-8" d="M201.55,241.67a36.21,36.21,0,0,0-8.07,10,86.19,86.19,0,0,0-5.56,11.49c-1.59,3.95-3,8-4.19,12.06a84,84,0,0,0-2.79,12.65,2.48,2.48,0,0,0,4.92.63c0-.05,0-.11,0-.16v-.07a79.9,79.9,0,0,1,1.85-12c.9-4,2-8,3.28-11.94a86.26,86.26,0,0,1,4.64-11.45A34.45,34.45,0,0,1,202.6,243l0,0a.83.83,0,0,0,0-1.17.82.82,0,0,0-1.12-.08"/><path class="cls-8" d="M123.79,297.07c7.2,1.41,14,4.61,20.23,8.48a101.15,101.15,0,0,1,17.26,13.74,96,96,0,0,1,13.81,17.06c3.83,6.16,6.88,12.89,7.89,19.79v0a2.48,2.48,0,1,0,4.9-.71.28.28,0,0,0,0-.09,46.81,46.81,0,0,0-3.62-11.21,69.9,69.9,0,0,0-5.7-10.06,99.34,99.34,0,0,0-15-17.2,104.19,104.19,0,0,0-18.27-13.48c-6.58-3.74-13.67-6.79-21.23-8a.83.83,0,0,0-.29,1.63Z"/><g class="cls-9"><path class="cls-1" d="M197.5,337.51c-22.3-84.74-127.32-180-178.41-148.4-28.2,17.45-17,89.27,22,130.89,27.72,29.61,65.14,45.27,98.69,52"/></g><path class="cls-7" d="M139.78,375.33a3.7,3.7,0,0,1-.66-.07c-28.56-5.7-69.17-19.52-100.48-53C12.28,294.13-3.67,249.72.72,216.68c1.91-14.36,7.65-24.88,16.6-30.42,14.26-8.83,33.27-8.91,55-.26,53.8,21.47,112.62,90.46,128.47,150.66a3.36,3.36,0,0,1-6.5,1.71C178.88,279.94,121.88,213,69.8,192.24c-19.65-7.84-36.57-7.93-48.95-.27C13.67,196.41,9,205.26,7.38,217.57c-4.08,30.7,11.47,73.75,36.16,100.14,23.48,25.08,57.89,43.18,96.9,51a3.36,3.36,0,0,1-.66,6.65Z"/><path class="cls-7" d="M36.19,202a215.37,215.37,0,0,1,20.93,14q10.1,7.57,19.56,15.91a318.48,318.48,0,0,1,35,36.13,323.88,323.88,0,0,1,29,41l3.11,5.45,1.56,2.72,1.47,2.77,2.94,5.54c1,1.86,1.85,3.75,2.77,5.62,1.9,3.73,3.57,7.56,5.3,11.36.89,1.89,1.65,3.84,2.45,5.76l2.39,5.79,0,.11a3.36,3.36,0,0,0,6.21-2.56.08.08,0,0,0,0,0l-2.52-5.89c-.85-1.95-1.65-3.93-2.59-5.85-1.82-3.86-3.57-7.75-5.58-11.52-1-1.89-1.94-3.8-3-5.67L152.12,317l-1.57-2.79-1.64-2.74L145.62,306a316.63,316.63,0,0,0-30.38-41A323.9,323.9,0,0,0,78.79,229.4C65.72,218.57,52,208.59,37,200.51a.81.81,0,0,0-1.11.33.82.82,0,0,0,.31,1.11Z"/><path class="cls-7" d="M33.05,254.65a107.74,107.74,0,0,1,12.06-.33c4,.09,8.06.35,12.06.76a155.7,155.7,0,0,1,23.73,4.29,112.54,112.54,0,0,1,22.4,8.39,72.63,72.63,0,0,1,19.11,13.69h0A2.48,2.48,0,0,0,126,278l-.06-.06a77.54,77.54,0,0,0-20.79-13.88,116.31,116.31,0,0,0-23.42-7.88,156.24,156.24,0,0,0-24.31-3.55c-4.08-.28-8.17-.41-12.26-.36a109.15,109.15,0,0,0-12.25.75.82.82,0,0,0,.17,1.64Z"/><path class="cls-7" d="M113.63,226.91a36.57,36.57,0,0,0-1.9,12.74,88.69,88.69,0,0,0,1,12.73q.93,6.31,2.48,12.52a84.1,84.1,0,0,0,4,12.33,2.48,2.48,0,1,0,4.56-1.94l-.06-.14,0-.07a80.68,80.68,0,0,1-4.48-11.31c-1.25-3.93-2.32-7.93-3.19-12a86,86,0,0,1-1.78-12.23,34.69,34.69,0,0,1,1-12.09l0,0a.84.84,0,0,0-.55-1,.85.85,0,0,0-1,.5"/><path class="cls-8" d="M74.46,314a61.2,61.2,0,0,1,21.74-2.89A100.62,100.62,0,0,1,118,314.24,95.83,95.83,0,0,1,138.57,322c6.42,3.39,12.45,7.66,16.81,13.11v0a2.48,2.48,0,1,0,3.87-3.09.15.15,0,0,0,0-.06,46.94,46.94,0,0,0-8.79-7.86,69.55,69.55,0,0,0-10-5.81A99.9,99.9,0,0,0,118.8,311a103.3,103.3,0,0,0-22.57-2.41c-7.56.08-15.23,1-22.36,3.82a.83.83,0,0,0,.58,1.55Z"/><path class="cls-4" d="M271.73,320.85c66,22.29,109.85-8.4,119.65,1,3.07,2.95,1.87,7.56,4.3,10.23,9.26,10.18,5.74,25.23-11.47,35.89-48,29.76-124.13,12.58-124.13,12.58"/><path class="cls-4" d="M260.08,380.55S336.2,397.73,384.21,368c15.54-9.64,19.93-22.85,13.8-32.81a19.87,19.87,0,0,0-2.33-3.09c-2.43-2.67-1.23-7.28-4.3-10.23-5.64-5.41-22.54,2.45-48.44,5.86a154.66,154.66,0,0,1-71.21-6.86Z"/><g class="cls-10"><path class="cls-1" d="M331.52,328.82c27.21,5.43,52.1-5.72,56.87-1.14,3.07,2.95,1.87,7.56,4.3,10.22A20.19,20.19,0,0,1,395,341a17.85,17.85,0,0,1,1.53,15.7c5-7.3,5.42-15.09,1.46-21.52a19.87,19.87,0,0,0-2.33-3.09c-2.43-2.67-1.23-7.28-4.3-10.22-5.64-5.42-22.54,2.44-48.44,5.85-3.63.47-7.44.86-11.42,1.11"/></g><path class="cls-5" d="M260.08,380.55S336.2,397.73,384.21,368c15.54-9.64,19.93-22.85,13.8-32.81,1.18,6.89-.28,22.45-32.93,33-31.25,10.09-36.07-12.07-22.14-40.45a154.66,154.66,0,0,1-71.21-6.86Z"/><path class="cls-3" d="M309.64,388.93a250.28,250.28,0,0,1-50.3-5.1,3.36,3.36,0,0,1,1.48-6.55c.75.16,75.35,16.52,121.62-12.16,8.56-5.31,13.79-11.91,14.73-18.6a14.68,14.68,0,0,0-4-12.18,12.26,12.26,0,0,1-2.64-6.21c-.38-1.86-.66-3-1.51-3.85-2.21-2.12-10.47-.26-20,1.9-20.61,4.66-55.1,12.45-98.35-2.15a3.36,3.36,0,1,1,2.15-6.36c41.46,14,73.51,6.76,94.72,2,12.86-2.91,21.36-4.83,26.17-.21,2.4,2.3,3,5.1,3.44,7.34a7.18,7.18,0,0,0,1,3.05,21.47,21.47,0,0,1,5.66,17.63c-1.22,8.7-7.56,17-17.84,23.38C363,385.1,334,388.93,309.64,388.93Z"/><path class="cls-4" d="M321.58,320.78C337.9,410.67,292,478.8,221.84,489c-47.27,6.87-82.16-13-98.58-31.05-19.53-21.46-30.95-64.89-10.11-95.22,14.28-20.81,35.55-25.88,53.64-30.15,22.13-5.21,38.49-48.12,27.05-62.78Z"/><path class="cls-4" d="M123.26,458c15.07,16.58,45.71,34.67,87.19,32.22,3.71-.23,7.51-.61,11.4-1.17a114.19,114.19,0,0,0,67.79-35.2A121.63,121.63,0,0,0,306,431.66c9.45-16.37,15.69-35.63,17.95-57a189.77,189.77,0,0,0-2.35-53.86l-127.74-51c11.44,14.65-4.92,57.57-27.05,62.79-4.24,1-8.66,2-13.12,3.33-9.88,2.83-20,6.84-28.88,14.1A60.24,60.24,0,0,0,114.3,361.1c-.39.53-.78,1.07-1.16,1.63a63.22,63.22,0,0,0-10.35,27.19c-3.6,25.32,6.3,52.46,20.47,68"/><path class="cls-4" d="M123.26,458c15.07,16.58,45.71,34.67,87.19,32.22,3.71-.23,7.51-.61,11.4-1.17a114.19,114.19,0,0,0,67.79-35.2A121.63,121.63,0,0,0,306,431.66c9.45-16.37,15.69-35.63,17.95-57a189.77,189.77,0,0,0-2.35-53.86l-127.74-51c11.44,14.65-4.92,57.57-27.05,62.79-4.24,1-8.66,2-13.12,3.33-9.88,2.83-20,6.84-28.88,14.1-.63.51-1.25,1-1.87,1.6a60.48,60.48,0,0,0-8.62,9.48c-.39.53-.78,1.07-1.16,1.63a60.08,60.08,0,0,0-6.24,11.68,66.29,66.29,0,0,0-4.11,15.51c-3.6,25.32,6.3,52.46,20.47,68"/><path class="cls-4" d="M123.25,458c15.08,16.57,45.72,34.65,87.2,32.2q5.56-.33,11.4-1.16a114.21,114.21,0,0,0,67.8-35.2A122.06,122.06,0,0,0,306,431.66c9.45-16.38,15.69-35.63,17.95-57a178,178,0,0,0,.9-22.71,203.13,203.13,0,0,0-3.25-31.15l-127.74-51c8,10.21,2.45,34.12-9.11,49.46-5,6.69-11.22,11.75-17.94,13.33-4.23,1-8.66,2-13.12,3.33-9.88,2.83-20,6.84-28.87,14.1-.64.52-1.27,1.05-1.89,1.6a60.39,60.39,0,0,0-8.6,9.48c-.4.53-.79,1.07-1.17,1.63a60.08,60.08,0,0,0-6.24,11.68,65.8,65.8,0,0,0-4.11,15.51c-3.6,25.32,6.29,52.46,20.46,68"/><path class="cls-5" d="M123.25,458c15.08,16.57,45.72,34.65,87.2,32.2q5.56-.33,11.4-1.16a114.21,114.21,0,0,0,67.8-35.2A122.06,122.06,0,0,0,306,431.66c9.45-16.38,15.69-35.63,17.95-57a178,178,0,0,0,.9-22.71c-.09-3.28-.25-6.6-.51-9.95l-.12-1.49c-.11-1.26-.22-2.53-.36-3.81a.17.17,0,0,0,0-.07c-.11-1.1-.23-2.2-.37-3.31q-.39-3.39-.93-6.83c-.08-.56-.17-1.12-.26-1.68-.22-1.33-.45-2.67-.69-4l-5.86-2.33L193.84,269.8c8,10.21,2.45,34.12-9.11,49.46,21.26,19.21,55,34.67,93.76,37.95a117.49,117.49,0,0,0,37.88-2.86c-1.82,28-9.62,54.89-26.73,76.56-38.15,48.31-129.7,42.69-166.39,4.16-10.79-11.33-18.11-27.8-20.49-44.94-3.51,25.26,6.36,52.29,20.49,67.83"/><path class="cls-3" d="M306,431.66c9.45-16.37,15.69-35.63,17.95-57-25,18.46-135.44,26.11-170.26-38.7-8.83,2.53-17.84,6-26,11.9,9.57,28.46,63.27,105.54,178.32,83.84"/><path class="cls-3" d="M106.9,374.41c1.54,47,37.22,111.4,115,114.59a114.19,114.19,0,0,0,67.79-35.2c-17.92,12.41-157.29,10.86-166.72-102.18a60.48,60.48,0,0,0-8.62,9.48c-.39.53-.78,1.07-1.16,1.63a60.08,60.08,0,0,0-6.24,11.68"/><path class="cls-3" d="M103.8,396.47c.6-3.54,1.32-7,2.23-10.41.49-1.69,1-3.37,1.56-5,.28-.83.59-1.64.91-2.45s.64-1.61,1-2.42a66,66,0,0,1,4.82-9.16c.44-.73.94-1.43,1.42-2.15s1-1.38,1.54-2.08,1-1.4,1.59-2l1.7-1.94c.28-.32.56-.66.85-1l.92-.9,1.84-1.81,1.95-1.67,1-.84c.33-.27.69-.51,1-.77l2.07-1.54,2.16-1.4,1.09-.71,1.13-.63,2.25-1.27a86,86,0,0,1,9.56-4.21c3.31-1.18,6.67-2.26,10.12-3.16s6.94-1.76,10.48-2.6l.66-.16.77-.22,1.54-.45c.5-.17,1-.38,1.48-.57a15.31,15.31,0,0,0,1.44-.63,26.45,26.45,0,0,0,2.72-1.49l1.31-.81,1.23-.89a44.71,44.71,0,0,0,8.48-8.28,66.07,66.07,0,0,0,6.36-9.67,69.59,69.59,0,0,0,7.47-21.7,45.09,45.09,0,0,0,.46-11.81,29.3,29.3,0,0,0-1.28-6.08,21.44,21.44,0,0,0-3.11-5.82v0l-3.89,5.19,127.72,51h0l-2.06-2.52a193,193,0,0,1,3,43.82c-.11,3.66-.54,7.3-.87,10.94l-.75,5.43c-.21,1.82-.63,3.6-.93,5.4a136.51,136.51,0,0,1-14.55,41,119.23,119.23,0,0,1-12.25,18,114.69,114.69,0,0,1-15.32,15.37,106.73,106.73,0,0,1-18,12A112.22,112.22,0,0,1,217.29,486a121.54,121.54,0,0,1-21.74.73l-5.43-.43a27.06,27.06,0,0,1-2.69-.33l-2.7-.38-2.69-.39-2.66-.55-2.66-.56c-.89-.19-1.78-.35-2.65-.62L168.83,482c-1.72-.54-3.43-1.15-5.15-1.72s-3.38-1.29-5.07-1.95l-2.52-1-2.45-1.17A102,102,0,0,1,135.07,465c-1.42-1.13-2.9-2.19-4.22-3.42l-2-1.79c-.68-.59-1.29-1.25-1.94-1.88a59.55,59.55,0,0,1-7.08-8.12,89.4,89.4,0,0,1-10.63-19.06h0a1.65,1.65,0,0,0-2.16-.89,1.68,1.68,0,0,0-.94,2,86.15,86.15,0,0,0,4.2,10.62,82.22,82.22,0,0,0,5.61,10,64.91,64.91,0,0,0,7.2,9.09c.66.69,1.29,1.44,2,2.09l2.09,2c1.37,1.37,2.89,2.55,4.34,3.8a108.3,108.3,0,0,0,40.92,20.46c.92.29,1.86.47,2.8.68l2.82.61,2.81.6,2.85.44,2.84.43c1,.14,1.9.31,2.86.37l5.73.49a129.33,129.33,0,0,0,23-.59,119.46,119.46,0,0,0,43.8-13.46A113.36,113.36,0,0,0,281,466.62a120.84,120.84,0,0,0,16.19-16.35,125.88,125.88,0,0,0,12.87-19,142.9,142.9,0,0,0,9.3-20.95,148.5,148.5,0,0,0,5.9-22.1c.76-3.73,1.23-7.51,1.76-11.29.35-3.79.81-7.57.92-11.37a199,199,0,0,0-3.05-45.35,3.29,3.29,0,0,0-2-2.51h0l-127.73-51A3.35,3.35,0,0,0,191,271.6l.17.26h0a14.49,14.49,0,0,1,1.9,3.84,24.37,24.37,0,0,1,.85,4.62,37.81,37.81,0,0,1-.55,10,65.85,65.85,0,0,1-6.9,19.38,57.49,57.49,0,0,1-5.63,8.56,38,38,0,0,1-7.11,6.95l-1,.71-1,.63a20.94,20.94,0,0,1-2.07,1.13,11.12,11.12,0,0,1-1.07.46l-1.06.42-1.09.31-.54.16-.67.16c-3.55.82-7.14,1.72-10.72,2.71s-7.16,2.16-10.7,3.46a91.16,91.16,0,0,0-10.39,4.7L131,341.47l-1.23.73-1.2.8c-.8.53-1.61,1.06-2.39,1.61l-2.3,1.76c-.38.29-.77.57-1.14.88l-1.08,1-2.16,1.92-2,2.05-1,1c-.33.35-.63.72-.94,1.09l-1.87,2.2c-.62.73-1.15,1.53-1.73,2.3s-1.14,1.53-1.67,2.33-1.07,1.6-1.54,2.44A57.17,57.17,0,0,0,103.8,374a58.74,58.74,0,0,0-3.29,22.32,1.66,1.66,0,0,0,3.29.2Z"/><path class="cls-4" d="M226.37,312.17C145.52,317.48,109.75,265.5,96,279.05a11.13,11.13,0,0,0-3.27,7.35c-6.91,7.07-6.41,17.76-4.12,26.33,2.65,9.9,23.84,42.64,91.85,46.2"/><path class="cls-4" d="M87.33,306.11a46.42,46.42,0,0,0,1.27,6.62c2.62,9.79,23.38,41.94,89.64,46.07l2.21.13,45.93-46.75C145.53,317.47,109.75,265.5,96,279a11.19,11.19,0,0,0-3.27,7.35c-5.22,5.34-6.21,12.73-5.39,19.72"/><path class="cls-4" d="M87.33,306.11a46.42,46.42,0,0,0,1.27,6.62c2.62,9.79,23.38,41.94,89.64,46.07l2.21.13,45.93-46.75C145.53,317.47,109.75,265.5,96,279a11.19,11.19,0,0,0-3.27,7.35c-5.22,5.34-6.21,12.73-5.39,19.72"/><g class="cls-10"><path class="cls-1" d="M87.33,306.11a46.42,46.42,0,0,0,1.27,6.62,23.58,23.58,0,0,0,1.86,4.55,41.36,41.36,0,0,1-.8-4.67c-.82-7,1.67-17.85,6.89-23.19a5.87,5.87,0,0,1,1.76-3.87c12.61-13.64,40.31,33.4,124.47,30.28l3.6-3.65C145.53,317.47,109.75,265.5,96,279a11.19,11.19,0,0,0-3.27,7.35c-5.22,5.34-6.21,12.73-5.39,19.72"/></g><path class="cls-5" d="M87.33,306.11a46.42,46.42,0,0,0,1.27,6.62c2.62,9.79,23.38,41.94,89.64,46.07-20-5.36-68.5-21.12-90.91-52.69"/><path class="cls-3" d="M226.16,308.83a164.18,164.18,0,0,1-35.73-1.46A159.66,159.66,0,0,1,156,298c-5.56-2.2-11-4.68-16.39-7.38s-10.67-5.6-16-8.53c-2.69-1.47-5.39-2.94-8.21-4.34a48.9,48.9,0,0,0-9.11-3.64,17.15,17.15,0,0,0-5.62-.58,11,11,0,0,0-6,2.33,13.85,13.85,0,0,0-4.77,7.53,20.56,20.56,0,0,0-.44,2.61l.93-1.93a22.39,22.39,0,0,0-5.19,8.48A29.12,29.12,0,0,0,83.64,302a43.44,43.44,0,0,0,1,9.16c.17.74.34,1.47.53,2.21.08.34.24.81.36,1.2s.28.79.42,1.18A33.77,33.77,0,0,0,88,320a56.48,56.48,0,0,0,11.36,14,83.71,83.71,0,0,0,14.26,10.46,114.46,114.46,0,0,0,32.52,12.38,163.17,163.17,0,0,0,17,2.78l4.29.39c1.43.12,2.87.18,4.29.28,2.86.22,5.73.21,8.58.29a1.65,1.65,0,0,0,.22-3.29h0a207.47,207.47,0,0,1-33.06-5.8,137.34,137.34,0,0,1-15.74-5.32A101.72,101.72,0,0,1,117,338.78,77.18,77.18,0,0,1,104,329a60.76,60.76,0,0,1-5.49-5.87,44.88,44.88,0,0,1-4.48-6.48,26.19,26.19,0,0,1-1.63-3.39c-.09-.27-.22-.56-.29-.82s-.17-.49-.25-.83c-.17-.64-.32-1.29-.46-1.93a37.81,37.81,0,0,1-.91-7.71,22.34,22.34,0,0,1,1.06-7.27,15.43,15.43,0,0,1,3.56-5.94l.05-.06a3.17,3.17,0,0,0,.88-1.87,16.24,16.24,0,0,1,.29-1.9,6.77,6.77,0,0,1,1.33-2.77,7.48,7.48,0,0,1,1.06-1.1,4.33,4.33,0,0,1,2.41-.92,10.53,10.53,0,0,1,3.42.39,43.4,43.4,0,0,1,7.83,3.12c2.65,1.3,5.29,2.75,8,4.2,5.32,2.93,10.71,5.9,16.23,8.67s11.15,5.34,16.92,7.62a165.74,165.74,0,0,0,35.9,9.83,170.15,170.15,0,0,0,37.18,1.55,3.35,3.35,0,1,0-.43-6.69Z"/><path class="cls-11" d="M327.6,319.26s8.62,18.71,2,34.87c-4.71,11.51-17,16-17,16s-3.63,5.75-9.35,5.1c-3.64-.42-6-4.41-6-4.41s-19.89,6.42-53.12,1.41c-34.08-5.15-45.84-26-45.84-26s-9.93,1.82-7.94-7.55c0,0-15-17.59-8.55-40.44s61.93-18.52,61.93-18.52l62,21.24"/><path class="cls-11" d="M182.41,323.57a47.82,47.82,0,0,0,7.92,15.08c-2,9.36,7.94,7.55,7.94,7.55s11.76,20.89,45.84,26c33.23,5,53.12-1.41,53.12-1.41s2.37,4,6,4.41c5.72.65,9.35-5.1,9.35-5.1s12.29-4.5,17-16A37.06,37.06,0,0,0,332,337.94a57.56,57.56,0,0,0-4.42-18.68l-21.95-18.32-62-21.24s-55.51-4.34-61.93,18.51a43.57,43.57,0,0,0,.63,25.36"/><path class="cls-12" d="M182.41,323.57c16.55,16.51,48.55,27.7,85.3,27.7,24.66,0,47.17-5,64.32-13.33a57.56,57.56,0,0,0-4.42-18.68l-21.95-18.32-62-21.24s-55.51-4.34-61.93,18.51a43.57,43.57,0,0,0,.63,25.36"/><path class="cls-3" d="M304.16,378.59a9.75,9.75,0,0,1-1.3-.08,11.15,11.15,0,0,1-6.9-3.91c-6.23,1.55-24.76,5.07-52.34.9-29.7-4.48-43.21-20.4-47.05-25.86-2.11,0-5.33-.4-7.56-2.69-1.26-1.3-2.57-3.6-2.17-7.4-3.41-4.59-14.12-21.22-8.23-42.23,7-25.17,63-21.1,65.36-20.92a3.25,3.25,0,0,1,.81.17l62,21.24a3.3,3.3,0,1,1-2.14,6.24L243,283c-15-1.09-53.47-.28-58.08,16.15-5.83,20.81,7.75,37.25,7.89,37.42a3.32,3.32,0,0,1,.71,2.81c-.32,1.47-.25,2.57.18,3,.69.72,2.74.81,3.95.61a3.32,3.32,0,0,1,3.46,1.63c.1.18,11.55,19.58,43.45,24.39s51.43-1.22,51.62-1.28a3.3,3.3,0,0,1,3.85,1.46c.4.65,1.94,2.62,3.55,2.81,3.54.4,6.16-3.56,6.19-3.6a3.33,3.33,0,0,1,1.64-1.32c.1,0,11-4.2,15.09-14.16,6-14.6-1.86-32.06-1.94-32.24a3.3,3.3,0,0,1,6-2.76c.38.82,9.14,20.21,2,37.5-4.45,10.86-14.71,16.05-17.95,17.46C313.26,374.68,309.56,378.59,304.16,378.59Z"/><path class="cls-3" d="M269.22,354a24.32,24.32,0,0,1-4.37,3.68,11.28,11.28,0,0,1-4.83,1.91c-.41.07-.81,0-1.2.06s-.76-.07-1.16-.17a5.05,5.05,0,0,1-2-.78,1.27,1.27,0,0,1-.55-1,2.85,2.85,0,0,1,.09-.77,2.71,2.71,0,0,1,.13-.44,1.45,1.45,0,0,1,.15-.34,1.94,1.94,0,0,0,.07-2.73,1.91,1.91,0,0,0-1.92-.53l-.88.24a56,56,0,0,1-7.37,1.53,32.34,32.34,0,0,1-7.32.26c-.57-.09-1.17-.13-1.72-.25l-.82-.19-.42-.09-.38-.14a7.79,7.79,0,0,1-1.48-.61l-.7-.35-.57-.4a3.45,3.45,0,0,1-1.29-2,4.21,4.21,0,0,1-.07-1.34,4.63,4.63,0,0,1,.12-.73c0-.22.15-.53.17-.63l.16-.56a1.75,1.75,0,0,0-1.23-2.14l-.23,0c-1.35-.18-2.77-.42-4.15-.66s-2.77-.53-4.15-.83-2.73-.67-4.07-1.08l-1-.35-1-.41a9.35,9.35,0,0,1-.94-.49c-.3-.18-.56-.41-.86-.63A9.23,9.23,0,0,0,216.7,344a32,32,0,0,0,3.9,2.11c1.34.62,2.71,1.17,4.09,1.66s2.76.93,4.21,1.33l-1.3-2.74a8.83,8.83,0,0,0-.55,1.22,9.42,9.42,0,0,0-.36,1.21,8.13,8.13,0,0,0-.16,2.62,7.75,7.75,0,0,0,2.45,4.84,15.6,15.6,0,0,0,8.61,3.5,30.92,30.92,0,0,0,8.57-.35,43.32,43.32,0,0,0,8.1-2.17l-2.72-3a5.92,5.92,0,0,0-.33,1,6.29,6.29,0,0,0-.19,1,6.86,6.86,0,0,0,.06,2.11,5.47,5.47,0,0,0,.95,2.12,5.27,5.27,0,0,0,1.69,1.46,8.44,8.44,0,0,0,3.53.91,14.32,14.32,0,0,0,1.73,0,14.51,14.51,0,0,0,1.67-.36,12.45,12.45,0,0,0,5.29-3.47,17.73,17.73,0,0,0,3.28-5"/><path class="cls-4" d="M301.62,107.22s0-68.07-71.07-87.27c0,0-1,5.12,3.17,7.25,18.16,9.34,53.3,35.38,49,79.13"/><path class="cls-3" d="M301.62,110.58a3.36,3.36,0,0,1-3.36-3.36h0a94.74,94.74,0,0,0-8.69-35.28c-10.18-22.08-27.36-37.52-51.17-46a109.07,109.07,0,0,1,30.87,25.85c13.11,16.4,18.77,34.86,16.82,54.89a3.36,3.36,0,1,1-6.68-.65c4.55-46.71-38.54-71.35-47.22-75.81-5.05-2.6-5.48-8.06-4.94-10.88a3.38,3.38,0,0,1,1.52-2.21,3.3,3.3,0,0,1,2.65-.39c38,10.25,56,34.31,64.36,52.68A99.42,99.42,0,0,1,305,107.22,3.36,3.36,0,0,1,301.62,110.58Z"/><path class="cls-4" d="M212.54,113.51s-25.74-39-77.94-45.3c-3.55-.43-6.12,7.4-2.62,8.12,22.43,4.6,47.88,17,68.6,45.76"/><path class="cls-3" d="M200.59,125.44a3.35,3.35,0,0,1-2.73-1.39c-17.27-24-39.66-38.92-66.55-44.43-3.14-.64-4.83-3.57-4.23-7.27.66-4.07,3.8-8,7.92-7.47,53.13,6.43,79.26,45.13,80.34,46.78a3.36,3.36,0,0,1-5.6,3.7h0c-.25-.38-25.47-37.6-75.19-43.77a4,4,0,0,0-.82,1.68c28.11,6,51.52,21.79,69.58,46.85a3.35,3.35,0,0,1-2.72,5.32Z"/><path class="cls-4" d="M417.43,270c11.62-31.58,3-57.19-8.93-79.93-6.41-15.7-21.09-50.84-42.14-73.47-31.07-33.39-75.3-39.88-108.81-33.48-47.69,9.12-73.42,30.06-91.38,58.78-24.85,39.75-32.61,100.62-22.13,131.2,9.21,26.87,30.83,64.43,122.32,64.66C347.73,338,403,309.23,417.43,270"/><path class="cls-4" d="M417.43,270c11.62-31.58,3-57.19-8.93-79.93-6.41-15.7-21.09-50.84-42.14-73.47-31.07-33.39-75.3-39.88-108.81-33.48-47.69,9.12-73.42,30.06-91.38,58.78-24.85,39.75-32.61,100.62-22.13,131.2,9.21,26.87,30.83,64.43,122.32,64.66C347.73,338,403,309.23,417.43,270"/><g class="cls-10"><path class="cls-1" d="M144,273.11a104.67,104.67,0,0,0,5.73,13.73c-.52-1.36-1-2.71-1.46-4-10.48-30.58-2.72-91.46,22.14-131.2a132.51,132.51,0,0,1,16-21c-2.44,5.22-2.67,10.34-.13,14.12,5.06,7.55,19.25,6.91,31.69-1.44s18.42-21.23,13.36-28.78c-3.36-5-10.73-6.41-19-4.34,13.3-7.67,29.41-13.55,49.37-17.37,33.51-6.41,77.74.09,108.81,33.48,14.9,16,26.59,38.27,34.43,55.5-7.52-17.7-20.81-46-38.7-65.2-31.06-33.4-75.29-39.89-108.81-33.49-47.68,9.12-73.41,30.06-91.38,58.78-24.85,39.75-32.61,100.62-22.13,131.2"/></g><path class="cls-5" d="M149.88,287.06c12.41,24.3,40.08,50.52,116.49,50.71C347.73,338,403,309.23,417.43,270a88.1,88.1,0,0,0,5-20.77c-15.59,43.53-92.68,69.8-170.55,66-48.34-2.37-83.69-10.74-102-28.15"/><path class="cls-13" d="M160.25,278.46c1,13.22,15.48,22.9,32.36,21.62s29.74-13,28.75-26.23S205.87,251,189,252.23s-29.75,13-28.75,26.23"/><path class="cls-13" d="M397.47,223.84c2.36,11.1,13.33,18.38,25.46,17.51.2-15.87-4.32-30.16-10.53-43.4-10.72,4.46-17.22,15.18-14.93,25.89"/><path class="cls-14" d="M105.81,70.29c0,9.18,6.89,16.63,15.39,16.63s15.4-7.45,15.4-16.63-6.89-16.62-15.4-16.62-15.39,7.44-15.39,16.62"/><g class="cls-10"><path class="cls-1" d="M111,82.76a17.55,17.55,0,0,1-1.61-7.42c0-9.18,6.89-16.63,15.4-16.63A14.71,14.71,0,0,1,135,62.87a15.31,15.31,0,0,0-13.77-9.21c-8.51,0-15.4,7.45-15.4,16.63A17.2,17.2,0,0,0,111,82.76"/></g><path class="cls-15" d="M106.15,73.81c1.5,7.5,7.67,13.11,15.06,13.11,8.49,0,15.39-7.45,15.39-16.63A17,17,0,0,0,130,56.67a17.68,17.68,0,0,1,.35,3.53c0,9.17-6.89,16.62-15.39,16.62a14.56,14.56,0,0,1-8.84-3"/><path class="cls-3" d="M121.2,90.27c-10.34,0-18.75-9-18.75-20s8.41-20,18.75-20,18.76,9,18.76,20S131.54,90.27,121.2,90.27Zm0-33.25c-6.64,0-12,5.95-12,13.27s5.4,13.27,12,13.27,12-6,12-13.27S127.84,57,121.2,57Z"/><path class="cls-14" d="M219.7,17c-1.73,9,3.63,17.63,12,19.23s16.53-4.4,18.26-13.42S246.3,5.22,238,3.62,221.43,8,219.7,17"/><g class="cls-10"><path class="cls-1" d="M222.46,30.27a17.58,17.58,0,0,1-.19-7.59c1.73-9,9.91-15,18.26-13.43a14.73,14.73,0,0,1,9.22,6A15.31,15.31,0,0,0,238,3.62C229.6,2,221.43,8,219.7,17a17.18,17.18,0,0,0,2.76,13.23"/></g><path class="cls-15" d="M219.38,20.57c.05,7.64,5.05,14.31,12.31,15.71,8.34,1.6,16.51-4.41,18.25-13.43a17,17,0,0,0-3.89-14.62,17.18,17.18,0,0,1-.31,3.54c-1.73,9-9.9,15-18.25,13.42a14.55,14.55,0,0,1-8.11-4.62"/><path class="cls-3" d="M234.38,39.89a17.22,17.22,0,0,1-3.33-.32,18,18,0,0,1-12-8.36,20.55,20.55,0,0,1-2.66-14.8h0a20.56,20.56,0,0,1,8-12.77A18.09,18.09,0,0,1,238.59.32c10.15,2,16.72,12.34,14.65,23.16C251.39,33.11,243.3,39.89,234.38,39.89Zm.86-33.17a11.66,11.66,0,0,0-6.91,2.33A13.87,13.87,0,0,0,223,17.68h0a13.81,13.81,0,0,0,1.76,10A11.44,11.44,0,0,0,232.32,33c6.52,1.25,12.94-3.58,14.32-10.76s-2.8-14-9.32-15.3A10.47,10.47,0,0,0,235.24,6.72ZM219.7,17h0Z"/><path class="cls-3" d="M266.37,341.13h0c-41,0-72.64-7.7-94-22.88-19.48-13.87-27.33-31.78-31.54-44.05-5.35-15.62-6.2-38.86-2.32-63.77,4.1-26.32,12.9-51.28,24.79-70.3,20.83-33.31,49.69-51.91,93.59-60.29a129.73,129.73,0,0,1,56.8,1.86,112.87,112.87,0,0,1,55.1,32.63c22,23.64,37,60.34,42.72,74.34,11.46,21.85,21.46,48.74,9,82.5h0c-7.52,20.42-26,37.87-53.43,50.48C339.42,334.39,304.56,341.13,266.37,341.13ZM280.78,84.34a121.31,121.31,0,0,0-22.6,2.09c-41.9,8-69.4,25.67-89.16,57.26C144,183.75,137.43,243.47,147.22,272c10,29.05,32.5,62.39,119.15,62.39,74,0,133.47-26.35,147.91-65.56,11.54-31.36,2.05-56.63-8.76-77.21a2.55,2.55,0,0,1-.13-.29c-5.54-13.57-20.25-49.62-41.49-72.45C340.13,93.34,308.32,84.34,280.78,84.34ZM417.43,270h0Z"/><path class="cls-3" d="M333.72,213.74S318.6,230.93,290.64,222c0,0,11.46,45.83,32.77,41C346.06,257.89,333.72,213.74,333.72,213.74Z"/><path class="cls-13" d="M334.13,254.15s-10.87-23.69-35.17-10C299,244.15,315.23,278.3,334.13,254.15Z"/><path class="cls-3" d="M320.26,266.72c-21.63,0-32.4-42-32.87-43.92a3.34,3.34,0,0,1,1-3.26,3.37,3.37,0,0,1,3.32-.75c25.38,8.12,39-6.64,39.54-7.28a3.36,3.36,0,0,1,5.74,1.33c.34,1.2,8.14,29.66-.82,44.69a18.19,18.19,0,0,1-12,8.75A17.65,17.65,0,0,1,320.26,266.72Zm-24.76-40c4.36,13.69,14.31,35.88,27.17,33a11.52,11.52,0,0,0,7.69-5.64c5.45-9.13,3.08-25.7,1.35-34.17C325.58,224.4,313.32,230.57,295.5,226.76Z"/><ellipse class="cls-3" cx="358.11" cy="186.33" rx="20.58" ry="28.04" transform="matrix(0.97, -0.23, 0.23, 0.97, -33.12, 86.84)"/><ellipse class="cls-1" cx="351.41" cy="183.65" rx="7.88" ry="10.74" transform="translate(-32.69 85.24) rotate(-13.22)"/><g class="cls-16"><ellipse class="cls-1" cx="368.43" cy="195.46" rx="8.45" ry="4.06" transform="matrix(0.07, -1, 1, 0.07, 146.18, 548.37)"/></g><ellipse class="cls-3" cx="249.75" cy="204.25" rx="22.45" ry="30.59" transform="translate(-40.09 62.53) rotate(-13.22)"/><ellipse class="cls-1" cx="242.43" cy="201.33" rx="8.6" ry="11.72" transform="translate(-39.62 60.78) rotate(-13.22)"/><g class="cls-16"><ellipse class="cls-1" cx="261" cy="214.21" rx="9.21" ry="4.43" transform="translate(28.02 458.6) rotate(-85.75)"/></g><path class="cls-1" d="M415.75,113.33a39.31,39.31,0,1,1,13.18,13.17l-18.24,4.09Z"/><g class="cls-10"><path class="cls-1" d="M452.65,61.12a39.44,39.44,0,0,0-42.58,31,37.3,37.3,0,0,1,.2-4.21,39.42,39.42,0,1,1,78.43,8,37.92,37.92,0,0,1-.66,4.18A39.42,39.42,0,0,0,452.65,61.12Z"/></g><path class="cls-3" d="M449.48,135.58a41.58,41.58,0,0,1-4.45-.23,42.35,42.35,0,0,1-16.66-5.29l-16.95,3.8a3.35,3.35,0,0,1-3.95-4.22l4.65-15.86a42.78,42.78,0,0,1,41.65-63.54,42.78,42.78,0,0,1-4.29,85.34Zm-20.55-12.44a3.4,3.4,0,0,1,1.75.49,36.07,36.07,0,0,0,54.59-27.15,36.06,36.06,0,1,0-66.66,15.1,3.31,3.31,0,0,1,.36,2.69l-3.46,11.8,12.69-2.85A3.63,3.63,0,0,1,428.93,123.14Z"/><g class="cls-17"><path class="cls-3" d="M415.53,113a45.54,45.54,0,0,0,73.24-22.24,40.41,40.41,0,0,1-.16,6.11,39.44,39.44,0,0,1-59.68,29.68l-18.24,4.09,5.06-17.26Z"/></g><path class="cls-18" d="M436.79,81.73h0c3.41-3.41,8.94-2.8,12.36.61l.53.53.53-.53c3.41-3.41,8.94-4,12.35-.61h0a8.73,8.73,0,0,1,0,12.35l-.53.53-10.72,10.73a2.31,2.31,0,0,1-3.26,0L437.32,94.61l-.53-.53A8.73,8.73,0,0,1,436.79,81.73Z"/><text class="cls-19" transform="translate(472.23 252.03)">Happy</text><text class="cls-19" transform="translate(472.23 412.03)">Birthday</text></g></g></svg>